<svg width="29" height="29" viewBox="0 0 29 29" fill="none" xmlns="http://www.w3.org/2000/svg">
<path fill-rule="evenodd" clip-rule="evenodd" d="M10.7492 3.74995C13.291 2.27302 16.4154 2.29883 18.9334 3.81757C21.4267 5.36724 22.942 8.13294 22.9279 11.1081C22.8699 14.0637 21.245 16.8419 19.2139 18.9897C18.0416 20.2349 16.7302 21.336 15.3065 22.2704C15.1598 22.3552 14.9992 22.412 14.8326 22.4379C14.6721 22.4311 14.5159 22.3837 14.378 22.3C12.2044 20.8959 10.2975 19.1036 8.74897 17.0094C7.45324 15.2613 6.71709 13.1493 6.6405 10.9603C6.63882 7.97945 8.20733 5.22688 10.7492 3.74995ZM12.218 12.1939C12.6456 13.248 13.6549 13.9356 14.7745 13.9356C15.5081 13.9409 16.2132 13.647 16.7328 13.1196C17.2524 12.5922 17.5433 11.875 17.5407 11.1278C17.5446 9.98723 16.8731 8.95678 15.8398 8.51756C14.8065 8.07833 13.6151 8.31696 12.822 9.12203C12.0289 9.9271 11.7905 11.1398 12.218 12.1939Z" fill="#0D62FF"/>
<ellipse opacity="0.4" cx="14.7843" cy="24.7647" rx="5.81699" ry="1.1634" fill="#0D62FF"/>
</svg>
