<svg width="29" height="29" viewBox="0 0 29 29" fill="none" xmlns="http://www.w3.org/2000/svg">
<path fill-rule="evenodd" clip-rule="evenodd" d="M10.7492 3.59309C13.291 2.11616 16.4154 2.14197 18.9334 3.66071C21.4267 5.21038 22.942 7.97608 22.9279 10.9512C22.8699 13.9068 21.245 16.6851 19.2139 18.8328C18.0416 20.078 16.7302 21.1791 15.3065 22.1135C15.1598 22.1983 14.9992 22.2551 14.8326 22.281C14.6721 22.2742 14.5159 22.2268 14.378 22.1431C12.2044 20.739 10.2975 18.9468 8.74897 16.8526C7.45324 15.1044 6.71709 12.9925 6.6405 10.8034C6.63882 7.82259 8.20733 5.07002 10.7492 3.59309ZM12.218 12.037C12.6456 13.0911 13.6549 13.7787 14.7745 13.7787C15.5081 13.784 16.2132 13.4902 16.7328 12.9628C17.2524 12.4353 17.5433 11.7181 17.5407 10.9709C17.5446 9.83037 16.8731 8.79992 15.8398 8.36069C14.8065 7.92146 13.6151 8.16009 12.822 8.96516C12.0289 9.77023 11.7905 10.9829 12.218 12.037Z" fill="#0D62FF"/>
<ellipse opacity="0.4" cx="14.7843" cy="24.6078" rx="5.81699" ry="1.1634" fill="#0D62FF"/>
</svg>
