<svg width="16" height="16" viewBox="0 0 16 16" fill="none" xmlns="http://www.w3.org/2000/svg">
<path d="M4.99998 10.1667C4.87331 10.1667 4.74665 10.12 4.64665 10.02C4.45331 9.82667 4.45331 9.50667 4.64665 9.31334L6.77998 7.18001C6.88665 7.07334 7.02665 7.02001 7.17998 7.03334C7.32665 7.04667 7.45998 7.12667 7.54665 7.25334L8.27331 8.34667L10.64 5.98001C10.8333 5.78667 11.1533 5.78667 11.3466 5.98001C11.54 6.17334 11.54 6.49334 11.3466 6.68667L8.54665 9.48667C8.43998 9.59334 8.29998 9.64667 8.14665 9.63334C7.99998 9.62001 7.86665 9.54001 7.77998 9.41334L7.05331 8.32001L5.35331 10.02C5.25331 10.12 5.12665 10.1667 4.99998 10.1667Z" fill="#018E42"/>
<path d="M11 8.16666C10.7267 8.16666 10.5 7.93999 10.5 7.66666V6.83333H9.66669C9.39335 6.83333 9.16669 6.60666 9.16669 6.33333C9.16669 6.05999 9.39335 5.83333 9.66669 5.83333H11C11.2734 5.83333 11.5 6.05999 11.5 6.33333V7.66666C11.5 7.93999 11.2734 8.16666 11 8.16666Z" fill="#018E42"/>
<path d="M9.99998 15.1667H5.99998C2.37998 15.1667 0.833313 13.62 0.833313 10V6.00001C0.833313 2.38001 2.37998 0.833344 5.99998 0.833344H9.99998C13.62 0.833344 15.1666 2.38001 15.1666 6.00001V10C15.1666 13.62 13.62 15.1667 9.99998 15.1667ZM5.99998 1.83334C2.92665 1.83334 1.83331 2.92668 1.83331 6.00001V10C1.83331 13.0733 2.92665 14.1667 5.99998 14.1667H9.99998C13.0733 14.1667 14.1666 13.0733 14.1666 10V6.00001C14.1666 2.92668 13.0733 1.83334 9.99998 1.83334H5.99998Z" fill="#018E42"/>
</svg>
